<svg class="map-region" viewBox="0 0 1000 680" preserveAspectRatio="xMidYMid slice" xmlns="http://www.w3.org/2000/svg" role="img" aria-label="Map of the Caribbean, with Curacao marked off the coast of South America"><rect width="1000" height="680" fill="#DAE5F4"/><g stroke="#cdd8ea" stroke-width="1" opacity=".6"><line x1="200" y1="0" x2="200" y2="680"/><line x1="400" y1="0" x2="400" y2="680"/><line x1="600" y1="0" x2="600" y2="680"/><line x1="800" y1="0" x2="800" y2="680"/><line x1="0" y1="170" x2="1000" y2="170"/><line x1="0" y1="340" x2="1000" y2="340"/><line x1="0" y1="510" x2="1000" y2="510"/></g><g fill="#E9DEC2" stroke="#D3C6A2" stroke-width="2" stroke-linejoin="round"><path d="M0,120 Q110,150 140,220 Q175,300 150,365 Q135,430 170,500 Q150,545 80,548 Q40,470 55,405 Q15,330 0,270 Z"/><path d="M300,70 Q326,120 320,200 Q300,208 294,155 Q291,110 300,70 Z"/><path d="M250,248 Q390,222 512,256 Q476,288 330,282 Q268,278 250,248 Z"/><ellipse cx="430" cy="340" rx="36" ry="15"/><path d="M560,272 Q650,254 712,284 Q684,316 600,310 Q566,302 560,272 Z"/><ellipse cx="772" cy="300" rx="26" ry="11"/><ellipse cx="838" cy="338" rx="8" ry="10"/><ellipse cx="852" cy="382" rx="8" ry="11"/><ellipse cx="858" cy="426" rx="8" ry="11"/><ellipse cx="856" cy="470" rx="8" ry="11"/><ellipse cx="844" cy="512" rx="8" ry="11"/><ellipse cx="820" cy="550" rx="8" ry="11"/><ellipse cx="392" cy="178" rx="9" ry="5"/><ellipse cx="422" cy="196" rx="9" ry="5"/><ellipse cx="452" cy="172" rx="9" ry="5"/><ellipse cx="470" cy="206" rx="9" ry="5"/><path d="M0,610 Q230,566 430,590 Q580,608 720,590 Q880,568 1000,600 L1000,680 L0,680 Z"/><ellipse cx="516" cy="524" rx="16" ry="7"/><ellipse cx="612" cy="520" rx="15" ry="7"/><ellipse cx="566" cy="516" rx="21" ry="8"/></g><g class="cur-mark"><circle class="ring2" cx="566" cy="516" r="17" fill="none" stroke="var(--blue)" stroke-width="2.5"/><circle cx="566" cy="516" r="5" fill="var(--blue)"/></g><text x="566" y="486" text-anchor="middle" class="mlabel strong">CURA&#199;AO</text></svg>