<svg viewBox="0 0 1200 110" preserveAspectRatio="xMidYMax slice" xmlns="http://www.w3.org/2000/svg"><g><rect x="0" y="10" width="140" height="100" fill="#0a1f4d"/><path d="M0 10 C0 -8,70 -14,70 -14 C70 -14,140 -8,140 10 Z" fill="#0a1f4d"/><rect x="144" y="50" width="104" height="60" fill="#0a1f4d"/><path d="M144 50 C144 32,196 26,196 26 C196 26,248 32,248 50 Z" fill="#0a1f4d"/><rect x="252" y="50" width="104" height="60" fill="#0a1f4d"/><path d="M252 50 C252 32,304 26,304 26 C304 26,356 32,356 50 Z" fill="#0a1f4d"/><rect x="360" y="10" width="140" height="100" fill="#0a1f4d"/><path d="M360 10 C360 -8,430 -14,430 -14 C430 -14,500 -8,500 10 Z" fill="#0a1f4d"/><rect x="504" y="36" width="104" height="74" fill="#0a1f4d"/><path d="M504 36 C504 18,556 12,556 12 C556 12,608 18,608 36 Z" fill="#0a1f4d"/><rect x="612" y="36" width="104" height="74" fill="#0a1f4d"/><path d="M612 36 C612 18,664 12,664 12 C664 12,716 18,716 36 Z" fill="#0a1f4d"/><rect x="720" y="10" width="120" height="100" fill="#0a1f4d"/><path d="M720 10 C720 -8,780 -14,780 -14 C780 -14,840 -8,840 10 Z" fill="#0a1f4d"/><rect x="844" y="50" width="104" height="60" fill="#0a1f4d"/><path d="M844 50 C844 32,896 26,896 26 C896 26,948 32,948 50 Z" fill="#0a1f4d"/><rect x="952" y="22" width="140" height="88" fill="#0a1f4d"/><path d="M952 22 C952 4,1022 -2,1022 -2 C1022 -2,1092 4,1092 22 Z" fill="#0a1f4d"/><rect x="1096" y="36" width="104" height="74" fill="#0a1f4d"/><path d="M1096 36 C1096 18,1148 12,1148 12 C1148 12,1200 18,1200 36 Z" fill="#0a1f4d"/></g></svg>