<svg viewBox="0 0 1200 340" preserveAspectRatio="xMidYMax slice" xmlns="http://www.w3.org/2000/svg"><defs><linearGradient id="glg" x1="0" y1="0" x2="1" y2="0"><stop offset="0" stop-color="#fff" stop-opacity="0"/><stop offset="50%" stop-color="#fff" stop-opacity=".45"/><stop offset="100%" stop-color="#fff" stop-opacity="0"/></linearGradient><clipPath id="refclip"><rect x="0" y="180" width="1200" height="160"/></clipPath></defs><g id="city"><path d="M0,54 L0,42 L20,42 L20,30 L39,30 L39,18 L101,18 L101,30 L120,30 L120,42 L140,42 L140,54 Z" fill="#F2A93B"/><rect x="65" y="9" width="10" height="9" fill="#F2A93B"/><rect x="0" y="54" width="140" height="126" fill="#F2A93B"/><rect x="0" y="52" width="140" height="4" fill="#ffffff" opacity=".8"/><rect x="19" y="70" width="21" height="22" fill="#fff" opacity=".94"/><line x1="30" y1="70" x2="30" y2="92" stroke="#F2A93B" stroke-width="1.3" opacity=".55"/><rect x="60" y="70" width="21" height="22" fill="#fff" opacity=".94"/><line x1="70" y1="70" x2="70" y2="92" stroke="#F2A93B" stroke-width="1.3" opacity=".55"/><rect x="100" y="70" width="21" height="22" fill="#fff" opacity=".94"/><line x1="110" y1="70" x2="110" y2="92" stroke="#F2A93B" stroke-width="1.3" opacity=".55"/><rect x="19" y="108" width="21" height="22" fill="#fff" opacity=".94"/><line x1="30" y1="108" x2="30" y2="130" stroke="#F2A93B" stroke-width="1.3" opacity=".55"/><rect x="60" y="108" width="21" height="22" fill="#fff" opacity=".94"/><line x1="70" y1="108" x2="70" y2="130" stroke="#F2A93B" stroke-width="1.3" opacity=".55"/><rect x="100" y="108" width="21" height="22" fill="#fff" opacity=".94"/><line x1="110" y1="108" x2="110" y2="130" stroke="#F2A93B" stroke-width="1.3" opacity=".55"/><path d="M146,40 L146,28 Q146,18 170,18 L199,18 L199,10 Q199,2 222,2 Q245,2 245,10 L245,18 L274,18 Q298,18 298,28 L298,40 Z" fill="#E0623D"/><rect x="146" y="40" width="152" height="140" fill="#E0623D"/><rect x="146" y="38" width="152" height="4" fill="#ffffff" opacity=".8"/><rect x="167" y="56" width="23" height="22" fill="#fff" opacity=".94"/><line x1="178" y1="56" x2="178" y2="78" stroke="#E0623D" stroke-width="1.3" opacity=".55"/><rect x="211" y="56" width="23" height="22" fill="#fff" opacity=".94"/><line x1="222" y1="56" x2="222" y2="78" stroke="#E0623D" stroke-width="1.3" opacity=".55"/><rect x="254" y="56" width="23" height="22" fill="#fff" opacity=".94"/><line x1="266" y1="56" x2="266" y2="78" stroke="#E0623D" stroke-width="1.3" opacity=".55"/><rect x="167" y="94" width="23" height="22" fill="#fff" opacity=".94"/><line x1="178" y1="94" x2="178" y2="116" stroke="#E0623D" stroke-width="1.3" opacity=".55"/><rect x="211" y="94" width="23" height="22" fill="#fff" opacity=".94"/><line x1="222" y1="94" x2="222" y2="116" stroke="#E0623D" stroke-width="1.3" opacity=".55"/><rect x="254" y="94" width="23" height="22" fill="#fff" opacity=".94"/><line x1="266" y1="94" x2="266" y2="116" stroke="#E0623D" stroke-width="1.3" opacity=".55"/><rect x="167" y="132" width="23" height="22" fill="#fff" opacity=".94"/><line x1="178" y1="132" x2="178" y2="154" stroke="#E0623D" stroke-width="1.3" opacity=".55"/><rect x="211" y="132" width="23" height="22" fill="#fff" opacity=".94"/><line x1="222" y1="132" x2="222" y2="154" stroke="#E0623D" stroke-width="1.3" opacity=".55"/><rect x="254" y="132" width="23" height="22" fill="#fff" opacity=".94"/><line x1="266" y1="132" x2="266" y2="154" stroke="#E0623D" stroke-width="1.3" opacity=".55"/><path d="M304,82 L374,56 L444,82 Z" fill="#E07E97"/><path d="M301,82 L374,52 L447,82 Z" fill="none" stroke="#ffffff" stroke-width="2" opacity=".55"/><rect x="304" y="82" width="140" height="98" fill="#E07E97"/><rect x="304" y="80" width="140" height="4" fill="#ffffff" opacity=".8"/><rect x="323" y="98" width="21" height="22" fill="#fff" opacity=".94"/><line x1="334" y1="98" x2="334" y2="120" stroke="#E07E97" stroke-width="1.3" opacity=".55"/><rect x="364" y="98" width="21" height="22" fill="#fff" opacity=".94"/><line x1="374" y1="98" x2="374" y2="120" stroke="#E07E97" stroke-width="1.3" opacity=".55"/><rect x="404" y="98" width="21" height="22" fill="#fff" opacity=".94"/><line x1="414" y1="98" x2="414" y2="120" stroke="#E07E97" stroke-width="1.3" opacity=".55"/><path d="M450,96 L450,84 L470,84 L470,72 L489,72 L489,60 L551,60 L551,72 L570,72 L570,84 L590,84 L590,96 Z" fill="#159C8E"/><rect x="515" y="51" width="10" height="9" fill="#159C8E"/><rect x="450" y="96" width="140" height="84" fill="#159C8E"/><rect x="450" y="94" width="140" height="4" fill="#ffffff" opacity=".8"/><rect x="469" y="112" width="21" height="22" fill="#fff" opacity=".94"/><line x1="480" y1="112" x2="480" y2="134" stroke="#159C8E" stroke-width="1.3" opacity=".55"/><rect x="510" y="112" width="21" height="22" fill="#fff" opacity=".94"/><line x1="520" y1="112" x2="520" y2="134" stroke="#159C8E" stroke-width="1.3" opacity=".55"/><rect x="550" y="112" width="21" height="22" fill="#fff" opacity=".94"/><line x1="560" y1="112" x2="560" y2="134" stroke="#159C8E" stroke-width="1.3" opacity=".55"/><path d="M596,54 L596,42 Q596,32 620,32 L649,32 L649,24 Q649,16 672,16 Q695,16 695,24 L695,32 L724,32 Q748,32 748,42 L748,54 Z" fill="#1150AB"/><rect x="596" y="54" width="152" height="126" fill="#1150AB"/><rect x="596" y="52" width="152" height="4" fill="#ffffff" opacity=".8"/><rect x="617" y="70" width="23" height="22" fill="#fff" opacity=".94"/><line x1="628" y1="70" x2="628" y2="92" stroke="#1150AB" stroke-width="1.3" opacity=".55"/><rect x="661" y="70" width="23" height="22" fill="#fff" opacity=".94"/><line x1="672" y1="70" x2="672" y2="92" stroke="#1150AB" stroke-width="1.3" opacity=".55"/><rect x="704" y="70" width="23" height="22" fill="#fff" opacity=".94"/><line x1="716" y1="70" x2="716" y2="92" stroke="#1150AB" stroke-width="1.3" opacity=".55"/><rect x="617" y="108" width="23" height="22" fill="#fff" opacity=".94"/><line x1="628" y1="108" x2="628" y2="130" stroke="#1150AB" stroke-width="1.3" opacity=".55"/><rect x="661" y="108" width="23" height="22" fill="#fff" opacity=".94"/><line x1="672" y1="108" x2="672" y2="130" stroke="#1150AB" stroke-width="1.3" opacity=".55"/><rect x="704" y="108" width="23" height="22" fill="#fff" opacity=".94"/><line x1="716" y1="108" x2="716" y2="130" stroke="#1150AB" stroke-width="1.3" opacity=".55"/><path d="M754,68 L830,42 L906,68 Z" fill="#E9D4A0"/><path d="M751,68 L830,38 L909,68 Z" fill="none" stroke="#ffffff" stroke-width="2" opacity=".55"/><rect x="754" y="68" width="152" height="112" fill="#E9D4A0"/><rect x="754" y="66" width="152" height="4" fill="#ffffff" opacity=".8"/><rect x="775" y="84" width="23" height="22" fill="#fff" opacity=".94"/><line x1="786" y1="84" x2="786" y2="106" stroke="#E9D4A0" stroke-width="1.3" opacity=".55"/><rect x="819" y="84" width="23" height="22" fill="#fff" opacity=".94"/><line x1="830" y1="84" x2="830" y2="106" stroke="#E9D4A0" stroke-width="1.3" opacity=".55"/><rect x="862" y="84" width="23" height="22" fill="#fff" opacity=".94"/><line x1="874" y1="84" x2="874" y2="106" stroke="#E9D4A0" stroke-width="1.3" opacity=".55"/><rect x="775" y="122" width="23" height="22" fill="#fff" opacity=".94"/><line x1="786" y1="122" x2="786" y2="144" stroke="#E9D4A0" stroke-width="1.3" opacity=".55"/><rect x="819" y="122" width="23" height="22" fill="#fff" opacity=".94"/><line x1="830" y1="122" x2="830" y2="144" stroke="#E9D4A0" stroke-width="1.3" opacity=".55"/><rect x="862" y="122" width="23" height="22" fill="#fff" opacity=".94"/><line x1="874" y1="122" x2="874" y2="144" stroke="#E9D4A0" stroke-width="1.3" opacity=".55"/><path d="M912,82 L912,70 L928,70 L928,58 L943,58 L943,46 L993,46 L993,58 L1008,58 L1008,70 L1024,70 L1024,82 Z" fill="#6F9A55"/><rect x="963" y="37" width="10" height="9" fill="#6F9A55"/><rect x="912" y="82" width="112" height="98" fill="#6F9A55"/><rect x="912" y="80" width="112" height="4" fill="#ffffff" opacity=".8"/><rect x="938" y="98" width="17" height="22" fill="#fff" opacity=".94"/><line x1="947" y1="98" x2="947" y2="120" stroke="#6F9A55" stroke-width="1.3" opacity=".55"/><rect x="981" y="98" width="17" height="22" fill="#fff" opacity=".94"/><line x1="989" y1="98" x2="989" y2="120" stroke="#6F9A55" stroke-width="1.3" opacity=".55"/><path d="M1030,96 L1030,84 Q1030,74 1048,74 L1069,74 L1069,66 Q1069,58 1086,58 Q1103,58 1103,66 L1103,74 L1124,74 Q1142,74 1142,84 L1142,96 Z" fill="#F9E814"/><rect x="1030" y="96" width="112" height="84" fill="#F9E814"/><rect x="1030" y="94" width="112" height="4" fill="#ffffff" opacity=".8"/><rect x="1056" y="112" width="17" height="22" fill="#fff" opacity=".94"/><line x1="1065" y1="112" x2="1065" y2="134" stroke="#F9E814" stroke-width="1.3" opacity=".55"/><rect x="1099" y="112" width="17" height="22" fill="#fff" opacity=".94"/><line x1="1107" y1="112" x2="1107" y2="134" stroke="#F9E814" stroke-width="1.3" opacity=".55"/></g><rect x="0" y="179" width="1200" height="2" fill="#fff" opacity=".45"/><g id="reflection" clip-path="url(#refclip)"><use href="#city" transform="matrix(1,0,0,-1,0,360)"/><rect class="glint" x="-260" y="180" width="220" height="160" fill="url(#glg)"/></g></svg>